<?xml version="1.0"?>
<svg xmlns:rdf="http://www.w3.org/1999/02/22-rdf-syntax-ns#" xmlns="http://www.w3.org/2000/svg" xmlns:cc="http://creativecommons.org/ns#" xmlns:dc="http://purl.org/dc/elements/1.1/" xmlns:svg="http://www.w3.org/2000/svg" id="svg3092" height="210mm" width="297mm" version="1.1">
  <g id="layer3">
    <path id="path4645" fill-rule="evenodd" d="m295.96 503.29 9.7555-2.1979c-0.001-0.005-0.002-0.01-0.004-0.015-0.003-0.0141-0.007-0.028-0.01-0.0417-0.013-0.0535-0.0256-0.10405-0.0377-0.15155-0.05-0.19682-0.0999-0.38248-0.14881-0.55727 0 0-0.00001 0-0.00001-0.00001-0.187-0.66829-0.38745-1.3114-0.59432-1.9311v-0.00001c-0.75907-2.2741-1.6532-4.4646-2.6383-6.5759 0-0.00001-0.00001-0.00001-0.00001-0.00001-3.3513-7.1899-7.8468-13.775-13.193-19.516v-0.00001h-0.00001c-7.7648-8.3274-17.292-14.782-27.604-19.164-14.623-6.1884-30.447-8.3989-45.943-8.2298-8.503 0.0696-17.063 1.4025-25.065 4.418-6.8144 2.5772-13.121 6.39-18.534 11.188 0 0-0.00001 0-0.00001 0.00001-9.9966 8.8967-16.746 20.739-21.098 33.101v0.00001c-3.7136 10.523-5.8548 21.515-6.8731 32.551v0.00001c-0.32799 3.5523-0.53804 7.1145-0.60071 10.677v0.00002c-0.0175 0.99675-0.0236 1.9937-0.0113 2.9902v0.00002c0.003 0.263 0.008 0.52599 0.0145 0.78888 0.002 0.0677 0.004 0.13534 0.006 0.20299 0.00092 0.0172 0.002 0.0345 0.002 0.0517 0.00016 0.006 0.00029 0.0119 0.00038 0.0179v0.00001-0.00001c-0.00009-0.006-0.00016-0.0119-0.00019-0.0179-0.00007-0.0173 0.00016-0.0345 0.00068-0.0518 0.00061-0.0677 0.002-0.13534 0.003-0.20299 0.004-0.26289 0.0104-0.5257 0.0181-0.78847 0.0289-0.99558 0.0762-1.9902 0.1349-2.9842 0.20975-3.5522 0.56624-7.0924 1.0391-10.615v-0.00002c1.4697-10.943 4.0464-21.742 8.1234-31.921v-0.00001c4.7913-11.937 11.801-23.129 21.573-31.061h0.00001c5.2641-4.2916 11.302-7.5977 17.699-9.7172 7.5188-2.502 15.542-3.3838 23.51-3.1374 14.939 0.49566 29.837 3.1874 42.978 9.4721h0.00001c9.2449 4.404 17.606 10.591 24.136 18.241l0.00001 0.00001c4.5266 5.2933 8.2398 11.252 10.878 17.604 0.00001 0 0.00001 0 0.00001 0.00001 0.77635 1.8712 1.456 3.7486 1.9948 5.6312v0.00001c0.14698 0.51362 0.27998 1.0104 0.39183 1.4911v0.00001c0.0293 0.12584 0.0552 0.24141 0.0767 0.34688 0.006 0.0302 0.0118 0.0574 0.0163 0.0817 0.001 0.006 0.002 0.0122 0.003 0.0181 0.00037 0.002 0.00073 0.004 0.001 0.006z"/>
    <path id="path4643" fill-rule="evenodd" d="m143.06 545.89 0.64382-9.9793c-8.5207-0.26976-17.054-0.54566-25.6-0.82769-8.9605-8.3015-17.916-16.656-26.868-25.064 5.4478 0.92596 10.893 1.8473 16.336 2.764-2.71-14.163-5.4281-28.274-8.1543-42.334-7.2088-1.7598-14.415-3.5135-21.617-5.2614h-0.000031c-0.93082-0.77037-1.865-1.5468-2.8025-2.3294 2.2774-5.0578 4.5529-10.129 6.8265-15.212 2.0157-4.7599 4.1807-9.3985 6.6853-13.783 2.3022-3.9634 4.6192-7.6783 7.5874-10.389 0.000004 0 0.000008-0.00001 0.000012-0.00001 1.491-1.7739 4.9056-2.2624 8.7647-3.4643 10.719-2.8873 21.627-5.2206 32.615-7.3216 12.529-2.3944 25.14-4.4493 37.793-6.3156 26.307-3.8799 52.753-6.9437 79.255-9.603 21.518-2.1589 43.068-4.0339 64.639-5.6582h0.00003c6.5168-0.49069 13.034-0.95818 19.552-1.3931h0.00003c1.7709-0.11816 3.541-0.23387 5.3104-0.34549h0.00006c0.46039-0.029 0.92027-0.0578 1.3796-0.086 0.00004-0.00001 0.00007-0.00001 0.00011-0.00002 0.40038-0.10871 0.80038-0.21733 1.2-0.32582 0.00004-0.00001 0.00007-0.00002 0.00011-0.00003l0.09-0.006c0.008-0.00047 0.0152-0.00094 0.0228-0.001 45.08-33.142 90.093-66.263 135.05-99.363 6.87-5.1984 16.095-6.9148 25.276-8.4528 13.23-2.1216 26.619-3.3813 40.051-4.2731 0.00002 0 0.00004-0.00001 0.00006-0.00001 15.319-1.0161 30.683-1.5093 46.059-1.7126 32.011-0.42303 64.047 0.39819 96.061 1.8299 0.00002 0.00001 0.00004 0.00001 0.00006 0.00001 26.037 1.1647 52.058 2.7576 78.053 4.7259 7.8602 0.59516 15.717 1.2249 23.57 1.9031 2.7837 0.22353 5.57 0.448 8.3591 0.67341 0.007 0.006 0.007 0.008 0.007 0.0104 0.007 0.0102 0.0146 0.0204 0.0219 0.0307 0.0288 0.0403 0.0577 0.0808 0.0867 0.12139 0.38629 0.25504 0.77244 0.51078 1.1586 0.76697 0.00002 0.00001 0.00004 0.00002 0.00005 0.00003 1.4781 0.9806 2.9536 1.966 4.4277 2.9543 0.00001 0.00002 0.00003 0.00003 0.00005 0.00004 5.3754 3.604 10.727 7.2445 16.062 10.912 0.00001 0.00001 0.00003 0.00002 0.00005 0.00004 17.228 11.844 34.271 23.959 51.066 36.411 0.00002 0.00002 0.00004 0.00003 0.00005 0.00004 19.646 14.565 38.997 29.54 57.497 45.523 8.2862 7.1586 16.402 14.517 24.097 22.298l0.00004 0.00004c6.1844 6.2536 12.163 12.739 17.226 19.908 2.5855 3.6541 4.2145 7.9307 5.4413 12.276 1.2707 4.5066 2.0751 9.1425 2.6199 13.805 0 0.00003 0 0.00005 0.00001 0.00007 0.28772 5.2993 0.57424 10.605 0.85954 15.917-2.0091 3.7879-4.0271 7.5848-6.054 11.391-8.7653-0.2765-17.547-0.54374-26.344-0.80172 8.7952 0.32845 17.606 0.64763 26.434 0.95756 2.078-3.8175 4.165-7.644 6.2608-11.48-0.23923-5.3336-0.47724-10.673-0.71405-16.019 0-0.00002 0-0.00004-0.00001-0.00006-0.50893-4.6867-1.281-9.3586-2.5253-13.918-1.1962-4.3891-2.818-8.7389-5.4326-12.509-5.0399-7.2557-10.995-13.824-17.145-20.141-7.6557-7.8642-15.732-15.307-23.974-22.543-18.403-16.157-37.663-31.311-57.211-46.047-0.00001-0.00001-0.00003-0.00003-0.00005-0.00004-16.713-12.599-33.678-24.865-50.83-36.86-0.00002-0.00001-0.00003-0.00003-0.00005-0.00004-5.3109-3.7142-10.641-7.4025-15.996-11.055-1.4686-1.0018-2.9394-2.0011-4.4137-2.9963-0.00001-0.00001-0.00003-0.00002-0.00005-0.00003-0.38517-0.26-0.77076-0.51984-1.157-0.77927-0.1686-0.091-0.33737-0.18209-0.50634-0.27316-0.0429-0.0231-0.0857-0.0462-0.12861-0.0693-0.0124-0.006-0.0249-0.0128-0.0373-0.0192-2.977-0.3174-5.95-0.63137-8.9257-0.94628-7.8582-0.74218-15.72-1.4358-23.585-2.0946-26.004-2.1786-52.042-3.9821-78.105-5.3573-0.00002 0-0.00005 0-0.00007-0.00001-32.043-1.6909-64.141-2.7706-96.261-2.6043h-0.00003c-15.429 0.0798-30.871 0.4523-46.3 1.3509h-0.00006c-13.521 0.78656-27.061 1.9534-40.513 3.9974-9.3212 1.3506-19.262 3.2772-27.502 9.1399-44.77 32.58-89.48 65.139-134.13 97.676-0.0154 0.00082-0.0229 0.001-0.0305 0.002-0.0298 0.002-0.0596 0.003-0.0893 0.005 0.00003-0.00001 0.00006-0.00003 0.00009-0.00005 0.16377-0.0951 0.32794-0.19028 0.49251-0.28545 0.00003-0.00001 0.00006-0.00003 0.00008-0.00005-0.46421 0.0248-0.92787 0.05-1.391 0.0755-0.00002 0.00001-0.00004 0.00001-0.00007 0.00001-1.7799 0.098-3.5586 0.19994-5.3361 0.30425h-0.00006c-6.5424 0.38392-13.082 0.80036-19.618 1.2399h-0.00006c-21.634 1.4548-43.255 3.1616-64.852 5.1537-26.595 2.4527-53.177 5.3175-79.673 9.0077-12.745 1.775-25.481 3.7463-38.173 6.0659-11.121 2.0313-22.243 4.3205-33.265 7.1914-3.5902 0.77108-8.1826 1.8705-12.346 5.332-0.000023 0.00002-0.000045 0.00004-0.000068 0.00006-3.9718 3.7144-6.8536 8.0755-9.2633 12.312-2.7855 4.8218-5.1631 9.8033-7.3197 14.808-2.1017 6.5537-4.2016 13.12-6.2996 19.7 1.9946 2.736 3.9925 5.478 5.9938 8.2262 0.00002 0.00001 0.00004 0.00001 0.00006 0.00001 6.8713 1.1843 13.74 2.3626 20.605 3.535 3.138 11.156 6.2841 22.261 9.4383 33.314-5.1126-0.25614-10.223-0.50766-15.331-0.75454 8.6415 11.531 17.278 23.115 25.91 34.752 9.6334 0.89082 19.279 1.7878 28.938 2.6908z"/>
    <path id="path4641" fill-rule="evenodd" d="m952.22 476.99-9.714-2.3745c-1.9582 14.338-4.1452 28.384-6.561 42.138h0.00001c12.477-0.5168 24.866-0.9088 37.166-1.176h0.00001c-18.766 11.536-37.317 23.787-55.656 36.753 19.193-11.664 38.172-24.043 56.937-37.136-11.743-0.2672-23.397-0.6592-34.964-1.176h-0.00001c4.0348-12.634 8.2985-24.977 12.791-37.029z"/>
    <path id="path3112" fill-rule="evenodd" d="m726.34 526.95 9.2666-3.759c-0.17402 0.10411-0.0227-0.50248 0.0219-1.5047 0.21965-1.3973 0.88456-2.9318 1.6967-4.6086 2.3984-4.8351 6.0105-9.2763 9.9783-13.596h0.00001c5.2066-5.6211 11.085-10.686 17.375-15.243v-0.00001c7.1939-5.2057 14.918-9.701 23.046-13.309h0.00001c8.6497-3.8368 17.758-6.67 27.095-8.1347 9.7957-1.5379 19.864-1.5545 29.655 0.18059 10.851 1.9144 21.357 6.0035 30.909 11.725 0 0 0 0.00001 0.00001 0.00001 11.644 6.9692 21.887 16.296 30.796 26.73 2.9403 3.412 4.6634 7.8346 6.0716 12.298 1.5854 5.0582 2.6287 10.301 3.4247 15.584v0.00001c0.59237 6.3351 1.1852 12.678 1.7786 19.027v0.00002-0.00002c-0.35314-6.3597-0.70679-12.727-1.061-19.101v-0.00002c-0.59764-5.3327-1.4505-10.664-2.8676-15.882-1.2343-4.5809-2.8682-9.2371-5.9077-13.107-8.6013-10.89-18.671-20.785-30.419-28.451-9.653-6.2942-20.439-10.977-31.816-13.44-10.264-2.2149-20.909-2.6166-31.363-1.372-9.9502 1.1856-19.706 3.8058-29 7.5237l-0.00001 0.00001c-8.729 3.4891-17.08 7.9288-24.908 13.158-0.00001 0-0.00001 0.00001-0.00002 0.00001-6.8388 4.5624-13.33 9.7468-19.221 15.631-0.00001 0-0.00001 0.00001-0.00001 0.00001-4.4618 4.4198-8.7499 9.3915-12.043 15.283-1.1534 2.0278-2.1995 4.3757-2.8427 7.0823-0.56749 1.9089-0.61152 4.4259 0.33271 7.2867z"/>
    <path id="path3124" stroke="#000" transform="translate(-3.7184e-8 .0000023196)" fill="none" d="m898.99 419.51a18.472 18.472 0 1 1 -10.74 -16.77"/>
    <path id="path4588" fill-rule="evenodd" d="m75.046 452.34-0.5547 9.9846c6.0985-0.61325 11.988-1.1032 17.667-1.4699 4.155-10.912 8.2349-20.992 12.24-30.239v-0.00001c-5.0441-0.75708-9.9361-1.2344-14.676-1.4321 4.6428 0.9752 9.1335 1.6707 13.472 2.0865-4.7915 8.9325-9.508 17.032-14.149 24.299h-0.000002c-4.8758-0.95309-9.5422-2.0295-13.999-3.2291z"/>
    <path id="path4592" fill-rule="evenodd" d="m642.07 394.6 0.12658-9.9992c-92.157 0.99183-184.52 1.379-277.09 1.1615 0.0245 0.0536 0.0491 0.10711 0.0736 0.16067 0.0713 0.15567 0.14265 0.31132 0.21397 0.46694 0.28069 0.61246 0.56133 1.2245 0.84193 1.8362 0.22211-0.17806 0.44458-0.35616 0.66735-0.53437l0.00001-0.00001 0.00001-0.00001c0.85575-0.68457 1.7129-1.3683 2.5711-2.0517 3.159-2.5156 6.3264-5.0221 9.4999-7.5222 0 0 0.00001 0 0.00001-0.00001 0 0 0.00001 0 0.00001-0.00001 10.515-8.2841 21.089-16.493 31.729-24.617 0.00001-0.00001 0.00001-0.00001 0.00002-0.00001 0-0.00001 0.00001-0.00001 0.00001-0.00001 13.127-10.023 26.343-19.92 39.738-29.562 12.116-8.7204 24.31-17.295 36.962-25.109 3.5796-2.2142 6.7562-4.762 10.084-6.8219 3.2244-1.956 6.6343-3.5819 10.097-3.6386h0.00003c44.274-1.4916 88.715-2.8173 133.32-3.977-0.59108 32.017-1.0619 64.155-1.4124 96.412 0.82232-32.249 1.5244-64.618 2.1061-97.107-44.529 0.59953-89.224 1.0331-134.09 1.3008h-0.00002c-4.3793 0.11755-8.3987 1.8562-11.871 3.984-3.5993 2.1641-6.8173 4.6681-10.171 6.6668-12.89 7.7059-25.293 16.155-37.561 24.718-13.58 9.477-26.976 19.206-40.274 29.055-0.00001 0.00001-0.00002 0.00002-0.00003 0.00002-10.779 7.9836-21.494 16.054-32.15 24.2-0.00001 0-0.00001 0.00001-0.00002 0.00002-3.2163 2.4585-6.428 4.9245-9.6328 7.4009l-0.00003 0.00003c-0.87061 0.67271-1.7411 1.3465-2.6111 2.0218-0.00001 0-0.00002 0.00001-0.00003 0.00002s-0.00002 0.00001-0.00003 0.00002c-0.22647 0.1758-0.45312 0.35188-0.67989 0.52829 0.16584 0.70229 0.33175 1.405 0.49772 2.1081 0.0422 0.17866 0.0843 0.35735 0.12654 0.53607 0.0145 0.0615 0.029 0.12299 0.0435 0.18449 92.741 2.1282 185.69 4.861 278.84 8.1986z"/>
    <path id="path4596" fill-rule="evenodd" d="m671.1 385.48 0.11152 9.9994c79.389-2.9975 158.58-5.4261 237.56-7.2859 0.0102-0.0675 0.0258-0.13063 0.0414-0.19371 0.0404-0.18868 0.0807-0.37732 0.12106-0.56592 0.15866-0.74176 0.31715-1.4829 0.47546-2.2235 0.00001-0.00003 0.00002-0.00007 0.00003-0.00011-0.31388-0.2554-0.62773-0.51061-0.94151-0.76567 0 0-0.00001 0-0.00001-0.00001-1.1918-0.96875-2.384-1.9365-3.5765-2.9036l-0.00001-0.00001c-4.2726-3.4651-8.5503-6.9234-12.832-10.376l-0.00001-0.00001c-13.16-10.612-26.359-21.179-39.62-31.669-0.00001 0-0.00002-0.00001-0.00003-0.00002-13.735-10.865-27.522-21.693-41.554-32.214-5.0164-3.7619-10.072-7.5127-15.28-11.078-1.691-1.1584-3.4176-2.3148-5.2227-3.3925-0.60901-0.36426-1.2466-0.7291-1.9241-1.0693-0.00001-0.00001-0.00002-0.00001-0.00003-0.00002-0.38592-0.20762-0.87304-0.43565-1.4788-0.61343-0.005-0.002-0.009-0.005-0.0139-0.007-0.00001 0-0.00001 0-0.00001-0.00001-0.0127-0.006-0.0252-0.0127-0.0375-0.0188 0-0.00001 0-0.00001-0.00001-0.00001-0.13726-0.0548-0.27387-0.10873-0.40973-0.16199-0.00001 0-0.00002-0.00001-0.00003-0.00001-0.49628-0.19455-0.99282-0.38441-1.4891-0.57072-1.6316-0.61256-3.2768-1.1935-4.9358-1.7373-0.00001 0-0.00002-0.00001-0.00003-0.00001-2.0266-0.66492-4.0873-1.2806-6.1906-1.7884-1.8705-0.45855-3.8464-0.85901-5.9214-0.9383-35.484-0.8834-70.82-1.9204-106.01-3.1111 2.3346 32.812 4.8074 65.482 7.4182 98.009-2.0805-32.566-4.2992-64.989-6.656-97.27 35.184 1.7414 70.22 3.6365 105.11 5.6852 1.6981 0.0779 3.4406 0.47631 5.2342 0.93207 1.9761 0.51007 3.9374 1.1324 5.8955 1.8091 1.5996 0.55331 3.188 1.1435 4.7656 1.7652 0.47973 0.18908 0.95699 0.38052 1.4312 0.57543 0.12986 0.0534 0.25873 0.10668 0.38653 0.16014 0.00001 0.00001 0.00003 0.00001 0.00004 0.00002 0.0576 0.0224 0.11489 0.0448 0.17195 0.0671 0.00001 0.00001 0.00003 0.00001 0.00005 0.00002 0.0204 0.008 0.041 0.016 0.0612 0.024 0.262 0.0702 0.59152 0.24122 1.0095 0.4435l0.00001 0.00001c0.54937 0.28534 1.1019 0.61559 1.67 0.96609 1.6778 1.0372 3.3197 2.1781 4.9724 3.3483 5.0712 3.5934 10.018 7.3913 14.962 11.225 13.81 10.711 27.387 21.736 40.934 32.816 0 0.00001 0.00001 0.00001 0.00001 0.00001 13.073 10.692 26.085 21.462 39.06 32.278 0.00001 0 0.00002 0.00001 0.00002 0.00001 4.2212 3.5191 8.4377 7.0431 12.649 10.573 0 0.00001 0.00001 0.00001 0.00002 0.00002 1.1752 0.98528 2.3498 1.9709 3.5235 2.9571 0.00001 0.00001 0.00001 0.00002 0.00002 0.00002 0.30902 0.25966 0.61787 0.51928 0.92652 0.77891 0.00004-0.00006 0.00007-0.00012 0.0001-0.00018 0.31815-0.6083 0.63647-1.2172 0.95494-1.8266 0.081-0.15497 0.16196-0.30997 0.24296-0.46501 0.0259-0.0545 0.0519-0.10908 0.0778-0.16363-78.756-0.0961-157.32-0.76546-235.68-2.0036z"/>
    <path id="path4600" fill-rule="evenodd" d="m979.03 464.97v-10c-3.002 0.9693-6.1658 1.8115-9.4913 2.5266-3.1127-8.9122-6.2254-18.8-9.338-29.662 3.7566 0.0847 7.6873-0.0522 11.792-0.4107-4.105-0.35854-8.3841-0.49544-12.837-0.4107v0.00001c2.1651 10.835 4.3302 22.645 6.4954 35.431 4.298 0.71506 8.7577 1.5572 13.379 2.5266z"/>
    <path id="path4604" fill-rule="evenodd" d="m946.75 469.93-0.52558 9.9862c15.948-0.38443 32.11-0.54817 48.487-0.49122 0.46474 10.354 0.92835 21.025 1.3908 32.014-18.189 1.2007-36.899 2.363-56.129 3.4869h-0.00001c2.3625-13.117 4.534-26.452 6.5143-40.003-2.711 13.424-5.231 27.065-7.5598 40.924 19.473-0.63536 39.468-1.2323 59.982-1.7909-0.12395-12.468-0.24676-25.254-0.36844-38.357-17.049-1.7023-34.313-3.6253-51.791-5.769z"/>
    <path id="path4608" fill-rule="evenodd" d="m75.102 461.28-2.4254 9.7014c7.6531 1.1627 15.397 2.4213 23.232 3.7759 3.1898 12.157 6.2932 24.712 9.3103 37.664v0.00001c-14.645-2.9018-29.751-5.7321-45.318-8.4909 0-0.00001-0.000001-0.00001-0.000001-0.00001-1.7024-11.575-3.3884-23.506-5.0578-35.793 6.2641-0.56422 12.613-1.2331 19.047-2.0066-6.4677 0.39937-13.02 0.90337-19.657 1.512 1.2626 12.343 2.5088 25.042 3.7385 38.096 0 0.00001 0.000001 0.00001 0.000001 0.00001 16.1 3.1054 32.661 6.1394 49.683 9.1018v-0.00001c-2.2608-14.61-4.4352-29.617-6.5232-45.022-8.5852-2.7504-17.261-5.5967-26.028-8.539z"/>
    <path id="path4647" fill-rule="evenodd" d="m285.88 459.61c-0.009-2.76 152.29-5.5087 339.96-6.1356 187.67-0.62687 339.98 1.1044 339.99 3.8643 0.009 2.76-152.29 5.5087-339.96 6.1356-187.67 0.62687-339.98-1.1044-339.99-3.8643z"/>
    <path id="path4657" fill-rule="evenodd" d="m75.701 456.73-0.10416 9.9995 84.497-4.1201z"/>
  </g>
  <metadata>
    <rdf:RDF>
      <cc:Work>
        <dc:format>image/svg+xml</dc:format>
        <dc:type rdf:resource="http://purl.org/dc/dcmitype/StillImage"/>
        <cc:license rdf:resource="http://creativecommons.org/licenses/publicdomain/"/>
        <dc:publisher>
          <cc:Agent rdf:about="http://openclipart.org/">
            <dc:title>Openclipart</dc:title>
          </cc:Agent>
        </dc:publisher>
        <dc:title>SiluetColtA15</dc:title>
        <dc:date>2013-03-18T15:19:28</dc:date>
        <dc:description>car, clip art, clipart, mitsubishi colt, siluete, vechicle, </dc:description>
        <dc:source>http://openclipart.org/detail/176360/siluetcolta15-by-koconmus-176360</dc:source>
        <dc:creator>
          <cc:Agent>
            <dc:title>koconmus</dc:title>
          </cc:Agent>
        </dc:creator>
        <dc:subject>
          <rdf:Bag>
            <rdf:li>car</rdf:li>
            <rdf:li>clip art</rdf:li>
            <rdf:li>clipart</rdf:li>
            <rdf:li>mitsubishi colt</rdf:li>
            <rdf:li>siluete</rdf:li>
            <rdf:li>vechicle</rdf:li>
          </rdf:Bag>
        </dc:subject>
      </cc:Work>
      <cc:License rdf:about="http://creativecommons.org/licenses/publicdomain/">
        <cc:permits rdf:resource="http://creativecommons.org/ns#Reproduction"/>
        <cc:permits rdf:resource="http://creativecommons.org/ns#Distribution"/>
        <cc:permits rdf:resource="http://creativecommons.org/ns#DerivativeWorks"/>
      </cc:License>
    </rdf:RDF>
  </metadata>
</svg>
