<?xml version="1.0" standalone="no"?>
<!DOCTYPE svg PUBLIC "-//W3C//DTD SVG 20010904//EN"
 "http://www.w3.org/TR/2001/REC-SVG-20010904/DTD/svg10.dtd">
<svg version="1.0" xmlns="http://www.w3.org/2000/svg"
 width="5000.000000pt" height="5000.000000pt" viewBox="0 0 5000.000000 5000.000000"
 preserveAspectRatio="xMidYMid meet">
<metadata>
Created by potrace 1.15, written by Peter Selinger 2001-2017
</metadata>
<g transform="translate(0.000000,5000.000000) scale(0.100000,-0.100000)"
fill="#ee6139" stroke="none">
<path d="M23325 43179 c-1411 -349 -2373 -586 -2612 -644 -150 -36 -191 -50
-186 -61 6 -17 -8 -19 -24 -3 -8 8 -17 8 -31 0 -11 -6 -34 -11 -51 -11 -18 0
-34 -7 -40 -17 -6 -10 -11 -12 -11 -5 0 6 -4 12 -10 12 -5 0 -7 -7 -4 -15 7
-17 -7 -20 -21 -6 -6 6 -86 -9 -215 -40 -246 -59 -237 -56 -222 -71 16 -16 15
-63 -2 -77 -29 -25 -65 16 -51 59 5 14 2 20 -9 20 -17 0 -19 -7 -16 -57 1 -18
-3 -33 -9 -33 -6 0 -11 18 -11 41 0 50 -22 49 -31 -2 l-6 -34 -2 33 c-1 43
-25 38 -29 -6 -4 -40 -22 -42 -22 -3 0 29 0 29 -40 19 -29 -8 -40 -16 -40 -29
0 -11 -4 -19 -10 -19 -5 0 -10 7 -10 15 0 8 -4 15 -8 15 -4 0 -300 -72 -657
-160 -358 -88 -823 -203 -1035 -255 -212 -52 -675 -167 -1030 -254 -355 -87
-951 -234 -1325 -326 -374 -92 -977 -241 -1340 -330 -363 -90 -966 -238 -1340
-330 -932 -229 -986 -243 -990 -247 -2 -1 34 -140 80 -308 46 -168 206 -757
355 -1310 150 -553 276 -1009 281 -1014 4 -5 55 3 119 18 62 15 114 25 117 23
2 -3 70 -238 150 -524 80 -285 149 -519 154 -521 5 -2 9 -16 9 -30 0 -15 21
-104 47 -199 46 -165 48 -171 73 -170 23 2 25 -2 30 -46 5 -42 4 -46 -12 -41
-10 3 -18 3 -18 0 0 -3 29 -108 64 -234 36 -125 155 -549 265 -942 110 -393
309 -1102 441 -1575 281 -1003 515 -1836 775 -2765 191 -681 230 -800 336
-1011 235 -470 603 -884 1058 -1188 512 -343 1141 -565 1776 -626 535 -52 937
-160 1335 -360 l87 -44 39 40 c32 32 37 43 28 57 -16 25 -38 21 -78 -16 -43
-39 -49 -28 -6 13 34 32 39 65 12 81 -14 9 -24 4 -57 -27 -22 -21 -41 -36 -44
-33 -7 7 60 73 81 79 24 8 58 -12 58 -34 0 -12 9 -21 24 -25 48 -12 38 -78
-19 -126 -23 -19 -19 -25 27 -43 41 -17 42 -17 68 8 28 27 71 33 89 12 16 -20
3 -27 -25 -15 -20 10 -28 8 -49 -12 -28 -27 -22 -40 26 -60 28 -12 32 -11 64
20 19 19 42 35 51 36 15 2 15 1 2 -13 -14 -14 -13 -18 16 -43 31 -28 33 -46 3
-34 -9 3 -19 14 -22 25 -8 24 -27 24 -49 0 -19 -21 -18 -21 55 -71 38 -25 46
-27 60 -14 26 23 45 18 23 -7 -19 -21 -18 -21 5 -40 13 -10 27 -16 33 -13 14
9 60 -5 53 -16 -3 -6 -1 -10 4 -10 6 0 11 -6 11 -14 0 -8 10 -16 22 -18 15 -2
26 -14 33 -33 11 -34 47 -68 88 -86 15 -6 27 -16 27 -21 0 -5 42 -55 93 -111
205 -224 343 -421 452 -642 113 -229 118 -248 211 -750 46 -253 92 -499 101
-547 9 -49 14 -90 11 -93 -3 -3 -57 25 -119 63 -176 106 -241 141 -764 417
-154 82 -334 177 -400 212 -976 524 -1982 787 -3090 807 -169 3 -297 -2 -658
-29 -501 -37 -525 -39 -827 -60 -118 -8 -240 -17 -270 -20 -100 -8 -302 -22
-445 -30 -299 -17 -476 -72 -672 -207 -124 -86 -212 -189 -412 -488 -102 -151
-235 -350 -297 -441 -143 -213 -178 -283 -178 -367 -1 -50 -3 -59 -13 -47 -15
21 -19 12 -34 -68 -12 -65 -12 -68 9 -83 28 -19 29 -54 2 -54 -28 0 -25 -20 3
-21 21 -1 21 -2 -4 -11 l-26 -11 -1 -444 c-1 -245 -7 -485 -12 -536 -43 -360
-178 -559 -435 -640 -89 -28 -201 -37 -475 -37 -220 0 -288 -4 -382 -19 -265
-46 -487 -159 -660 -339 -150 -156 -234 -329 -258 -532 -11 -91 -47 -247 -91
-392 -13 -44 -18 -79 -14 -101 5 -27 3 -38 -12 -48 -13 -10 -33 -65 -62 -169
-23 -85 -216 -780 -427 -1545 -464 -1672 -641 -2313 -659 -2380 -7 -27 -100
-360 -205 -740 -105 -379 -297 -1072 -426 -1540 -130 -467 -321 -1157 -424
-1532 -104 -375 -193 -701 -196 -725 -4 -23 -10 -45 -13 -48 -13 -10 -40 -125
-30 -128 6 -3 5 -9 -2 -18 -11 -13 -10 -29 6 -67 4 -10 3 -17 -5 -17 -6 0 -9
3 -7 7 3 5 -1 13 -8 20 -10 9 -14 7 -18 -10 -3 -12 -13 -48 -22 -81 -15 -53
-15 -60 -1 -75 30 -33 9 -99 -27 -85 -9 3 -17 -2 -21 -13 -3 -10 -149 -540
-325 -1178 -176 -638 -327 -1182 -335 -1210 -8 -27 -119 -425 -246 -883 -127
-459 -240 -861 -251 -895 -30 -86 -29 -209 1 -297 27 -82 98 -189 156 -238
116 -97 106 -93 974 -374 746 -241 996 -244 1505 -18 312 139 2204 1082 2365
1179 587 355 1021 811 1312 1380 44 87 68 146 68 167 0 22 8 42 22 56 15 15
150 386 430 1182 225 638 411 1177 414 1198 4 21 10 38 14 38 6 0 71 174 75
200 0 3 13 38 29 79 24 60 26 75 15 82 -8 5 -19 7 -26 4 -7 -2 -15 0 -18 5 -4
6 2 10 13 10 10 0 21 2 24 5 10 10 -5 55 -18 55 -8 0 -14 5 -14 11 0 6 7 9 15
5 11 -4 15 1 15 19 0 14 4 25 10 25 5 0 10 -30 12 -67 3 -67 3 -67 15 -33 43
129 171 482 177 487 6 6 206 23 811 68 193 14 366 28 385 30 19 2 78 7 130 10
260 17 474 37 491 45 48 26 64 99 31 139 -18 21 -1448 557 -1633 612 -205 60
-348 144 -489 288 -107 109 -164 200 -213 339 -30 82 -32 97 -33 245 -2 88 -5
161 -8 165 -3 3 0 12 7 21 29 34 57 136 51 183 -6 41 -4 47 23 69 27 22 74
154 518 1479 268 800 501 1480 518 1510 76 139 180 239 326 314 104 53 161 71
596 181 187 48 374 100 415 116 230 88 406 265 473 474 18 55 39 203 36 250
-4 70 -19 65 191 65 l190 0 0 125 0 125 512 -2 512 -3 12 -85 c7 -47 35 -246
64 -443 l52 -358 -42 -87 c-66 -135 -153 -344 -204 -491 -266 -765 -247 -1394
70 -2360 112 -342 257 -586 555 -936 586 -689 1653 -1490 2097 -1576 142 -27
203 40 153 171 -39 104 -140 225 -481 579 -231 240 -352 369 -475 506 -38 43
-82 91 -97 107 -16 16 -28 33 -28 39 0 5 -12 14 -26 19 -14 6 -23 14 -20 18 9
16 -24 52 -41 45 -13 -5 -15 -2 -9 12 8 23 -20 55 -49 55 -32 0 -59 34 -51 65
5 19 0 35 -19 59 -24 32 -28 33 -55 23 -25 -9 -33 -8 -47 6 -22 21 -11 32 16
15 15 -9 23 -10 32 -1 11 11 5 28 -26 67 -15 19 -16 19 -45 -9 -38 -36 -53
-24 -17 13 31 32 32 41 13 68 -14 18 -16 18 -50 -15 -44 -42 -47 -32 -6 16 24
27 28 38 20 53 -17 33 -28 32 -70 -6 -22 -20 -40 -32 -40 -26 0 5 18 26 40 46
l40 36 -61 106 c-222 385 -373 916 -383 1349 -8 319 53 564 231 922 49 100 82
177 77 184 -4 8 4 22 22 37 27 22 27 24 6 19 -15 -4 -22 -1 -19 6 2 7 14 12
26 12 18 0 32 16 62 70 42 76 47 100 24 109 -9 3 -15 0 -15 -9 0 -8 5 -15 11
-15 5 0 7 -5 4 -10 -5 -8 -11 -7 -21 1 -17 14 -1 49 21 49 8 0 15 5 15 11 0 6
-9 9 -20 6 -22 -6 -28 8 -7 15 22 9 37 -3 37 -30 0 -19 3 -23 11 -15 7 7 13
22 14 35 4 37 4 38 18 38 14 0 77 109 77 134 0 9 -4 16 -10 16 -5 0 -10 -9
-10 -20 0 -11 -4 -20 -10 -20 -6 0 -10 30 -10 70 0 71 16 100 18 34 2 -44 11
-56 19 -26 3 12 9 22 14 22 13 0 11 -14 -3 -28 -9 -9 -9 -15 -1 -23 8 -8 29
23 76 113 110 208 103 179 84 315 -9 65 -30 210 -46 323 -73 493 -124 841
-231 1573 -16 114 -30 214 -30 222 0 12 19 15 114 15 113 0 113 0 109 23 -3
17 8 37 41 73 25 28 52 51 61 51 14 0 14 -2 2 -15 -13 -12 -11 -18 17 -42 31
-28 33 -46 3 -34 -9 3 -19 14 -22 25 -8 25 -21 24 -54 -3 -32 -28 -37 -73 -7
-76 11 0 26 4 34 10 10 9 15 9 21 -1 6 -9 26 -12 57 -10 27 1 421 2 877 1
l827 -2 0 -393 c0 -321 3 -404 15 -452 61 -231 251 -409 522 -487 l78 -23
1440 0 c1367 0 1443 1 1505 18 134 38 242 95 350 186 l35 29 -3 -362 c-2 -198
0 -371 2 -382 l6 -21 67 18 c355 96 1263 342 1845 500 l718 194 0 258 0 257
895 0 895 0 0 295 c0 162 -1 295 -3 295 -1 0 -112 32 -247 70 -135 39 -248 70
-252 70 -5 0 -8 -6 -8 -14 0 -8 -5 -18 -10 -21 -7 -4 -9 2 -4 19 5 22 3 26
-15 26 -12 0 -21 -6 -22 -12 0 -7 -4 -3 -10 10 -10 25 -28 21 -30 -6 -1 -10
-4 -7 -8 7 -10 36 -31 38 -32 4 l-1 -28 -7 29 c-7 33 -32 50 -26 17 4 -24 -17
-44 -39 -35 -10 4 -16 18 -16 39 l0 32 -112 32 c-62 18 -143 41 -180 52 l-68
20 0 203 0 203 198 57 c108 31 352 101 542 155 l345 98 3 297 2 296 -892 0
-893 -1 -3 266 c-1 146 -4 265 -6 265 -4 0 -552 148 -1903 514 -397 108 -724
196 -727 196 -3 0 -6 -171 -6 -380 l0 -380 -62 50 c-62 50 -184 118 -248 139
l-35 11 -98 348 c-74 264 -103 351 -117 360 -16 10 -19 22 -18 65 1 28 -6 78
-16 110 -15 48 -21 57 -36 52 -27 -9 -53 22 -45 54 4 14 13 30 22 34 16 9 15
17 -13 115 -14 46 -17 50 -30 37 -19 -19 -28 -19 -45 1 -11 13 -9 14 14 9 32
-8 38 10 7 20 -11 3 -20 11 -20 16 0 6 8 5 21 -1 23 -13 35 -8 24 9 -3 6 -15
11 -26 11 -12 0 -17 4 -14 11 4 6 14 8 22 5 10 -4 13 -1 9 12 -5 17 -234 826
-443 1562 -63 223 -127 448 -143 500 -69 223 -100 436 -100 678 0 182 10 291
42 452 111 569 467 1123 973 1513 39 30 131 96 205 147 195 134 355 265 520
427 l145 142 -23 21 c-22 21 -30 60 -12 60 5 0 9 -3 9 -7 -6 -39 22 -61 35
-28 9 24 -4 45 -28 45 -20 1 -20 1 -3 11 14 8 22 8 30 0 12 -12 13 -15 16 -48
1 -16 3 -16 16 1 8 11 15 28 15 39 0 10 4 16 9 12 5 -3 17 2 26 12 23 23 95
118 95 126 0 4 -10 6 -22 4 -31 -3 -38 38 -9 48 12 3 21 11 21 16 0 6 -10 7
-22 4 -22 -7 -22 -6 -6 11 14 14 20 15 33 4 9 -7 15 -20 14 -29 -1 -9 -1 -23
0 -31 3 -24 31 19 31 48 0 13 4 20 10 17 10 -6 61 58 91 118 12 23 20 59 20
97 1 33 5 60 10 60 5 0 9 -11 9 -25 0 -106 148 202 233 485 116 383 138 797
67 1205 -23 131 -11 85 -332 1225 -140 498 -358 1272 -484 1721 -165 590 -232
815 -241 812 -7 -3 -13 2 -13 11 0 9 -7 16 -15 16 -8 0 -15 5 -15 10 0 6 7 10
15 10 28 0 8 115 -29 172 -8 13 -17 46 -20 73 -5 62 -46 206 -56 200 -4 -3 -5
-16 -2 -30 2 -15 0 -25 -7 -25 -7 0 -11 20 -11 50 0 32 4 50 12 50 9 0 9 3 0
12 -7 7 -12 20 -12 29 0 9 -124 460 -276 1001 -151 540 -385 1376 -520 1855
-134 480 -244 879 -244 886 0 8 41 23 115 41 63 15 115 30 115 32 0 3 -104
365 -230 807 -127 441 -296 1032 -377 1312 -80 281 -148 513 -152 516 -3 4
-204 -43 -446 -102z m-683 -401 c68 -29 147 -120 126 -145 -8 -10 -7 -12 4 -8
18 7 25 -9 38 -75 9 -50 -1 -123 -26 -175 -17 -36 -62 -90 -69 -83 -2 2 7 31
20 65 32 78 37 161 14 213 -13 28 -14 40 -6 41 7 0 6 3 -3 6 -20 8 -84 76 -82
86 2 5 -2 6 -7 3 -4 -3 -29 1 -55 10 -28 10 -69 14 -106 12 -34 -2 -62 1 -64
7 -3 6 -5 2 -5 -7 -1 -9 -9 -19 -20 -23 -21 -6 -94 -83 -100 -105 -14 -44 -12
-135 4 -176 41 -109 173 -154 271 -93 55 34 82 125 55 191 -21 54 -110 85
-162 58 -32 -17 -52 -67 -43 -109 4 -20 7 -39 6 -43 -1 -5 1 -7 6 -6 4 0 15
-2 24 -6 33 -15 53 -3 53 31 0 41 18 61 40 43 35 -29 5 -97 -51 -114 -33 -10
-102 22 -120 55 -8 16 -11 29 -7 29 4 0 2 5 -5 12 -7 7 -12 24 -12 38 0 32 34
96 50 92 6 -1 9 2 5 7 -9 16 65 49 110 49 95 1 180 -92 180 -197 0 -57 -29
-126 -52 -126 -6 0 -15 -4 -20 -9 -5 -5 -3 -6 5 -2 24 14 11 -13 -15 -32 -82
-56 -180 -70 -258 -37 -50 20 -101 69 -125 118 -10 20 -15 35 -11 32 4 -2 8 2
8 10 0 8 -4 12 -8 9 -15 -9 -21 17 -21 86 0 53 6 82 25 122 30 62 89 124 108
113 7 -5 10 -4 6 2 -9 14 57 42 118 52 65 10 119 3 177 -21z m1179 -2378 c21
-78 302 -1121 660 -2450 144 -531 287 -1064 320 -1185 33 -121 71 -265 86
-320 19 -74 32 -105 50 -120 21 -18 23 -26 19 -70 -3 -36 3 -80 24 -155 16
-58 27 -106 26 -107 -8 -8 -519 -13 -1751 -18 -753 -3 -1707 -7 -2120 -10
-774 -6 -3417 -20 -5470 -30 -643 -3 -1313 -8 -1487 -10 l-318 -3 -20 71 c-12
40 -37 121 -56 181 -19 61 -34 116 -34 123 0 7 -4 13 -10 13 -5 0 -10 -18 -10
-40 0 -22 -4 -40 -10 -40 -5 0 -10 23 -10 51 0 43 3 50 16 45 19 -7 17 3 -19
119 -19 62 -22 66 -26 40 -4 -26 -6 -23 -11 17 -4 37 -8 46 -18 39 -8 -5 -14
-25 -14 -45 0 -20 -4 -36 -9 -36 -5 0 -9 23 -9 51 0 45 2 50 19 44 11 -3 22
-1 26 5 10 17 -25 123 -46 138 -15 10 -19 25 -19 65 0 37 -43 201 -155 582
-84 292 -151 533 -147 536 4 4 48 17 97 29 104 25 717 176 1280 315 215 53
507 125 650 160 143 35 454 112 690 170 237 58 538 133 670 165 132 32 789
194 1460 360 671 165 1250 308 1288 316 l67 16 -22 18 c-13 10 -19 22 -15 27
5 4 15 0 22 -10 12 -17 15 -16 48 12 38 34 77 40 98 14 13 -15 11 -16 -20 -10
-27 6 -39 2 -63 -18 -16 -14 -27 -25 -25 -25 3 0 68 16 144 34 149 38 2324
574 3458 852 237 58 480 119 540 134 61 16 116 28 124 27 8 -1 21 -29 32 -67z
m-7179 -9622 c68 -29 147 -120 126 -145 -8 -10 -7 -12 4 -8 18 7 25 -9 38 -75
9 -50 -1 -123 -26 -175 -17 -36 -62 -90 -69 -83 -2 2 7 31 20 65 32 78 37 161
14 213 -13 28 -14 40 -6 41 7 0 6 3 -3 6 -20 8 -84 76 -82 86 2 5 -2 6 -7 3
-4 -3 -29 1 -55 10 -28 10 -69 14 -106 12 -34 -2 -62 1 -64 7 -3 6 -5 2 -5 -7
-1 -9 -9 -19 -20 -23 -21 -6 -94 -83 -100 -105 -14 -44 -12 -135 4 -176 41
-109 173 -154 271 -93 55 34 82 125 55 191 -21 54 -110 85 -162 58 -32 -17
-52 -67 -43 -109 4 -20 7 -39 6 -43 -1 -5 1 -7 6 -6 4 0 15 -2 24 -6 33 -15
53 -3 53 31 0 41 18 61 40 43 35 -29 5 -97 -51 -114 -33 -10 -102 22 -120 55
-8 16 -11 29 -7 29 4 0 2 5 -5 12 -7 7 -12 24 -12 38 0 32 34 96 50 92 6 -1 9
2 5 7 -9 16 65 49 110 49 95 1 180 -92 180 -197 0 -57 -29 -126 -52 -126 -6 0
-15 -4 -20 -9 -5 -5 -3 -6 5 -2 24 14 11 -13 -15 -32 -82 -56 -180 -70 -258
-37 -50 20 -101 69 -125 118 -10 20 -15 35 -11 32 4 -2 8 2 8 10 0 8 -4 12 -8
9 -15 -9 -21 17 -21 86 0 53 6 82 25 122 30 62 89 124 108 113 7 -5 10 -4 6 2
-9 14 57 42 118 52 65 10 119 3 177 -21z m6000 0 c68 -29 147 -120 126 -145
-8 -10 -7 -12 4 -8 18 7 25 -9 38 -75 9 -50 -1 -123 -26 -175 -17 -36 -62 -90
-69 -83 -2 2 7 31 20 65 32 78 37 161 14 213 -13 28 -14 40 -6 41 7 0 6 3 -3
6 -20 8 -84 76 -82 86 2 5 -2 6 -7 3 -4 -3 -29 1 -55 10 -28 10 -69 14 -106
12 -34 -2 -62 1 -64 7 -3 6 -5 2 -5 -7 -1 -9 -9 -19 -20 -23 -21 -6 -94 -83
-100 -105 -14 -44 -12 -135 4 -176 41 -109 173 -154 271 -93 55 34 82 125 55
191 -21 54 -110 85 -162 58 -32 -17 -52 -67 -43 -109 4 -20 7 -39 6 -43 -1 -5
1 -7 6 -6 4 0 15 -2 24 -6 33 -15 53 -3 53 31 0 41 18 61 40 43 35 -29 5 -97
-51 -114 -33 -10 -102 22 -120 55 -8 16 -11 29 -7 29 4 0 2 5 -5 12 -7 7 -12
24 -12 38 0 32 34 96 50 92 6 -1 9 2 5 7 -9 16 65 49 110 49 95 1 180 -92 180
-197 0 -57 -29 -126 -52 -126 -6 0 -15 -4 -20 -9 -5 -5 -3 -6 5 -2 24 14 11
-13 -15 -32 -82 -56 -180 -70 -258 -37 -50 20 -101 69 -125 118 -10 20 -15 35
-11 32 4 -2 8 2 8 10 0 8 -4 12 -8 9 -15 -9 -21 17 -21 86 0 53 6 82 25 122
30 62 89 124 108 113 7 -5 10 -4 6 2 -9 14 57 42 118 52 65 10 119 3 177 -21z
m-6000 -6000 c68 -29 147 -120 126 -145 -8 -10 -7 -12 4 -8 18 7 25 -9 38 -75
9 -50 -1 -123 -26 -175 -17 -36 -62 -90 -69 -83 -2 2 7 31 20 65 32 78 37 161
14 213 -13 28 -14 40 -6 41 7 0 6 3 -3 6 -20 8 -84 76 -82 86 2 5 -2 6 -7 3
-4 -3 -29 1 -55 10 -28 10 -69 14 -106 12 -34 -2 -62 1 -64 7 -3 6 -5 2 -5 -7
-1 -9 -9 -19 -20 -23 -21 -6 -94 -83 -100 -105 -14 -44 -12 -135 4 -176 41
-109 173 -154 271 -93 55 34 82 125 55 191 -21 54 -110 85 -162 58 -32 -17
-52 -67 -43 -109 4 -20 7 -39 6 -43 -1 -5 1 -7 6 -6 4 0 15 -2 24 -6 33 -15
53 -3 53 31 0 41 18 61 40 43 35 -29 5 -97 -51 -114 -33 -10 -102 22 -120 55
-8 16 -11 29 -7 29 4 0 2 5 -5 12 -7 7 -12 24 -12 38 0 32 34 96 50 92 6 -1 9
2 5 7 -9 16 65 49 110 49 95 1 180 -92 180 -197 0 -57 -29 -126 -52 -126 -6 0
-15 -4 -20 -9 -5 -5 -3 -6 5 -2 24 14 11 -13 -15 -32 -82 -56 -180 -70 -258
-37 -50 20 -101 69 -125 118 -10 20 -15 35 -11 32 4 -2 8 2 8 10 0 8 -4 12 -8
9 -15 -9 -21 17 -21 86 0 53 6 82 25 122 30 62 89 124 108 113 7 -5 10 -4 6 2
-9 14 57 42 118 52 65 10 119 3 177 -21z m6000 0 c68 -29 147 -120 126 -145
-8 -10 -7 -12 4 -8 18 7 25 -9 38 -75 9 -50 -1 -123 -26 -175 -17 -36 -62 -90
-69 -83 -2 2 7 31 20 65 32 78 37 161 14 213 -13 28 -14 40 -6 41 7 0 6 3 -3
6 -20 8 -84 76 -82 86 2 5 -2 6 -7 3 -4 -3 -29 1 -55 10 -28 10 -69 14 -106
12 -34 -2 -62 1 -64 7 -3 6 -5 2 -5 -7 -1 -9 -9 -19 -20 -23 -21 -6 -94 -83
-100 -105 -14 -44 -12 -135 4 -176 41 -109 173 -154 271 -93 55 34 82 125 55
191 -21 54 -110 85 -162 58 -32 -17 -52 -67 -43 -109 4 -20 7 -39 6 -43 -1 -5
1 -7 6 -6 4 0 15 -2 24 -6 33 -15 53 -3 53 31 0 41 18 61 40 43 35 -29 5 -97
-51 -114 -33 -10 -102 22 -120 55 -8 16 -11 29 -7 29 4 0 2 5 -5 12 -7 7 -12
24 -12 38 0 32 34 96 50 92 6 -1 9 2 5 7 -9 16 65 49 110 49 95 1 180 -92 180
-197 0 -57 -29 -126 -52 -126 -6 0 -15 -4 -20 -9 -5 -5 -3 -6 5 -2 24 14 11
-13 -15 -32 -82 -56 -180 -70 -258 -37 -50 20 -101 69 -125 118 -10 20 -15 35
-11 32 4 -2 8 2 8 10 0 8 -4 12 -8 9 -15 -9 -21 17 -21 86 0 53 6 82 25 122
30 62 89 124 108 113 7 -5 10 -4 6 2 -9 14 57 42 118 52 65 10 119 3 177 -21z
m-4924 -2010 c6 -46 25 -177 42 -293 17 -115 33 -225 36 -242 l5 -33 -546 0
-545 0 0 48 c0 120 70 263 186 378 67 67 98 89 186 133 144 72 233 89 453 90
l171 1 12 -82z m3202 54 c133 -41 246 -107 336 -197 114 -113 173 -228 188
-367 l7 -58 -1109 0 -1109 0 -16 113 c-9 61 -30 204 -47 317 -16 113 -30 209
-30 213 0 4 384 6 853 5 l852 -4 75 -22z m-2985 -1544 c2 -13 23 -149 45 -303
22 -154 45 -307 50 -340 5 -33 10 -70 10 -82 l0 -23 -475 0 -475 0 0 120 0
120 -190 0 -190 0 0 265 0 265 610 0 610 0 5 -22z m-7293 -2500 c68 -29 147
-120 126 -145 -8 -10 -7 -12 4 -8 18 7 25 -9 38 -75 9 -50 -1 -123 -26 -175
-17 -36 -62 -90 -69 -83 -2 2 7 31 20 65 32 78 37 161 14 213 -13 28 -14 40
-6 41 7 0 6 3 -3 6 -20 8 -84 76 -82 86 2 5 -2 6 -7 3 -4 -3 -29 1 -55 10 -28
10 -69 14 -106 12 -34 -2 -62 1 -64 7 -3 6 -5 2 -5 -7 -1 -9 -9 -19 -20 -23
-21 -6 -94 -83 -100 -105 -14 -44 -12 -135 4 -176 41 -109 173 -154 271 -93
55 34 82 125 55 191 -21 54 -110 85 -162 58 -32 -17 -52 -67 -43 -109 4 -20 7
-39 6 -43 -1 -5 1 -7 6 -6 4 0 15 -2 24 -6 33 -15 53 -3 53 31 0 41 18 61 40
43 35 -29 5 -97 -51 -114 -33 -10 -102 22 -120 55 -8 16 -11 29 -7 29 4 0 2 5
-5 12 -7 7 -12 24 -12 38 0 32 34 96 50 92 6 -1 9 2 5 7 -9 16 65 49 110 49
95 1 180 -92 180 -197 0 -57 -29 -126 -52 -126 -6 0 -15 -4 -20 -9 -5 -5 -3
-6 5 -2 24 14 11 -13 -15 -32 -82 -56 -180 -70 -258 -37 -50 20 -101 69 -125
118 -10 20 -15 35 -11 32 4 -2 8 2 8 10 0 8 -4 12 -8 9 -15 -9 -21 17 -21 86
0 53 6 82 25 122 30 62 89 124 108 113 7 -5 10 -4 6 2 -9 14 57 42 118 52 65
10 119 3 177 -21z m0 -6000 c68 -29 147 -120 126 -145 -8 -10 -7 -12 4 -8 18
7 25 -9 38 -75 9 -50 -1 -123 -26 -175 -17 -36 -62 -90 -69 -83 -2 2 7 31 20
65 32 78 37 161 14 213 -13 28 -14 40 -6 41 7 0 6 3 -3 6 -20 8 -84 76 -82 86
2 5 -2 6 -7 3 -4 -3 -29 1 -55 10 -28 10 -69 14 -106 12 -34 -2 -62 1 -64 7
-3 6 -5 2 -5 -7 -1 -9 -9 -19 -20 -23 -21 -6 -94 -83 -100 -105 -14 -44 -12
-135 4 -176 41 -109 173 -154 271 -93 55 34 82 125 55 191 -21 54 -110 85
-162 58 -32 -17 -52 -67 -43 -109 4 -20 7 -39 6 -43 -1 -5 1 -7 6 -6 4 0 15
-2 24 -6 33 -15 53 -3 53 31 0 41 18 61 40 43 35 -29 5 -97 -51 -114 -33 -10
-102 22 -120 55 -8 16 -11 29 -7 29 4 0 2 5 -5 12 -7 7 -12 24 -12 38 0 32 34
96 50 92 6 -1 9 2 5 7 -9 16 65 49 110 49 95 1 180 -92 180 -197 0 -57 -29
-126 -52 -126 -6 0 -15 -4 -20 -9 -5 -5 -3 -6 5 -2 24 14 11 -13 -15 -32 -82
-56 -180 -70 -258 -37 -50 20 -101 69 -125 118 -10 20 -15 35 -11 32 4 -2 8 2
8 10 0 8 -4 12 -8 9 -15 -9 -21 17 -21 86 0 53 6 82 25 122 30 62 89 124 108
113 7 -5 10 -4 6 2 -9 14 57 42 118 52 65 10 119 3 177 -21z"/>
<path d="M42565 32906 c-324 -75 -535 -331 -537 -650 -1 -182 58 -330 182
-460 90 -93 171 -145 285 -183 67 -22 98 -27 195 -27 197 -1 329 53 471 194
135 135 199 285 199 470 0 185 -63 335 -200 471 -93 93 -179 144 -295 175 -84
22 -226 27 -300 10z"/>
<path d="M39739 29830 c-224 -30 -416 -165 -514 -362 -98 -200 -99 -395 -3
-598 53 -110 175 -236 285 -293 254 -132 555 -93 762 99 266 246 291 645 59
922 -140 167 -377 261 -589 232z"/>
<path d="M42605 29829 c-245 -36 -456 -206 -537 -434 -33 -90 -41 -141 -40
-242 2 -173 69 -332 191 -453 128 -126 259 -187 427 -197 450 -28 793 369 699
811 -39 184 -178 362 -345 444 -132 65 -269 90 -395 71z"/>
<path d="M36859 27329 c-245 -32 -459 -204 -543 -437 -126 -351 61 -737 416
-858 75 -26 96 -29 213 -28 116 0 139 3 210 28 270 94 440 322 452 606 9 198
-53 356 -192 495 -149 150 -353 221 -556 194z"/>
<path d="M39739 27330 c-221 -27 -416 -165 -514 -362 -98 -200 -99 -395 -3
-598 33 -70 56 -100 127 -170 137 -137 287 -200 470 -200 111 0 196 21 298 71
293 145 437 485 338 798 -96 303 -401 500 -716 461z"/>
<path d="M42605 27329 c-543 -75 -771 -743 -385 -1129 85 -85 155 -129 262
-168 65 -23 88 -26 208 -26 122 0 143 2 215 28 268 93 439 320 453 602 6 126
-13 218 -71 334 -59 119 -169 231 -287 288 -133 65 -264 89 -395 71z"/>
<path d="M34020 24828 c-147 -20 -272 -83 -379 -189 -79 -78 -132 -165 -168
-274 -36 -112 -38 -276 -4 -385 35 -115 84 -195 176 -286 132 -131 283 -193
471 -194 283 0 540 190 632 467 20 62 25 99 26 183 1 58 -3 122 -7 142 l-8 37
-20 -20 c-28 -28 -36 -16 -13 18 20 30 19 64 -1 103 l-13 25 -11 -40 c-12 -47
-39 -88 -51 -80 -5 3 -12 0 -16 -6 -4 -8 -3 -9 4 -5 25 15 10 -14 -15 -32 -82
-56 -180 -70 -258 -37 -50 20 -101 69 -125 118 -10 20 -15 35 -11 32 4 -2 8 2
8 10 0 8 -4 12 -8 9 -15 -9 -21 17 -21 86 0 108 57 207 146 252 l28 15 -38 15
c-86 34 -225 50 -324 36z"/>
<path d="M36910 24834 c-8 -1 -41 -6 -73 -9 -36 -4 -55 -10 -51 -17 4 -6 7
-35 8 -65 1 -46 0 -51 -11 -37 -13 17 -18 50 -15 88 2 13 -2 16 -14 12 -9 -3
-26 -9 -39 -12 -14 -4 -22 -11 -19 -19 4 -10 -1 -12 -15 -8 -27 7 -28 -14 -1
-22 11 -3 20 -15 20 -25 0 -25 -30 -34 -49 -15 -15 15 -14 16 12 10 17 -5 27
-3 27 4 0 6 -4 11 -9 11 -5 0 -17 7 -25 16 -21 20 -36 10 -36 -27 0 -16 -4
-29 -10 -29 -5 0 -10 11 -10 25 0 23 -2 24 -20 13 -11 -7 -20 -18 -20 -25 0
-7 -8 -13 -18 -13 -10 0 -43 -26 -74 -57 -105 -108 -168 -236 -168 -343 0 -37
-4 -60 -12 -62 -9 -3 -12 -28 -11 -82 4 -169 72 -327 192 -446 87 -85 157
-130 263 -167 64 -23 90 -26 208 -27 127 -1 140 1 220 30 312 111 492 414 441
742 -15 98 -51 187 -77 188 -38 2 -43 4 -49 23 -3 10 -1 30 4 45 10 24 5 32
-50 91 -34 36 -66 65 -72 65 -5 0 -16 8 -23 18 -13 16 -13 16 -14 0 0 -26 -18
-22 -22 4 -2 12 -18 30 -35 41 l-33 19 0 -31 c0 -25 4 -31 21 -31 11 0 17 -4
14 -10 -18 -29 -58 12 -50 50 6 27 4 29 -57 49 -35 12 -97 25 -138 31 -77 10
-84 10 -110 4z"/>
<path d="M39739 24829 c-219 -25 -416 -164 -514 -361 -99 -201 -100 -394 -3
-598 53 -110 175 -236 285 -293 414 -215 901 36 973 501 6 39 10 89 8 113 -3
41 -4 42 -43 46 -64 6 -105 23 -147 61 -33 30 -92 122 -69 107 4 -2 8 2 8 10
0 8 -4 12 -8 9 -15 -9 -21 17 -21 86 0 52 6 82 23 117 l22 46 -31 27 c-45 37
-167 96 -237 113 -73 19 -171 25 -246 16z"/>
<path d="M42637 24832 c-15 -2 -25 -8 -22 -13 4 -5 1 -9 -4 -9 -6 0 -11 5 -11
11 0 6 -8 8 -17 6 -10 -3 -39 -10 -65 -17 -46 -12 -47 -13 -33 -33 22 -31 18
-47 -10 -47 -14 0 -25 -4 -25 -10 0 -5 12 -10 28 -10 22 -1 24 -2 10 -10 -21
-13 -45 -3 -51 21 -7 25 2 59 16 59 6 0 7 3 4 6 -4 4 -18 -1 -33 -11 -22 -14
-25 -21 -19 -51 7 -40 -1 -45 -15 -9 -5 14 -14 25 -20 25 -5 0 -10 -11 -10
-25 0 -14 -5 -25 -11 -25 -6 0 -8 9 -4 20 9 27 -5 25 -51 -9 -323 -238 -359
-716 -76 -999 87 -87 157 -132 264 -169 64 -23 90 -26 208 -27 124 -1 142 2
215 27 267 94 439 321 453 599 2 53 1 113 -4 135 l-8 38 -7 -40 c-6 -32 -7
-27 -5 25 3 63 -25 170 -44 170 -4 0 -11 12 -15 28 l-8 27 -12 -29 c-15 -36
-24 -23 -30 45 -4 48 -9 58 -58 107 -35 35 -63 54 -82 57 -16 1 -31 7 -32 12
-8 24 -31 45 -42 39 -8 -5 -8 -13 -1 -26 15 -28 12 -38 -5 -16 -8 11 -15 30
-15 43 0 13 -4 23 -10 23 -5 0 -10 -19 -10 -42 0 -53 -17 -39 -22 17 -3 37 -6
41 -51 57 -26 10 -72 21 -102 24 -49 6 -55 5 -56 -12 0 -16 -2 -16 -9 4 -10
23 -12 23 -93 14z"/>
<path d="M34415 24711 c-39 -18 -106 -83 -114 -111 -14 -44 -12 -135 4 -176
41 -109 173 -154 271 -93 73 44 89 180 29 228 -14 10 -23 20 -20 22 9 10 -97
9 -115 -1 -33 -17 -53 -67 -44 -109 4 -20 7 -39 6 -43 -1 -5 1 -7 6 -6 4 0 15
-2 24 -6 33 -15 53 -3 53 31 0 41 18 61 40 43 35 -29 5 -97 -51 -114 -33 -10
-102 22 -120 55 -8 16 -11 29 -7 29 4 0 2 5 -5 12 -7 7 -12 24 -12 38 0 32 34
96 50 92 6 -1 9 2 5 7 -9 15 69 51 110 51 l37 0 -29 24 c-25 21 -67 46 -75 46
-2 0 -21 -9 -43 -19z"/>
<path d="M40301 24592 c-16 -30 -13 -127 4 -170 27 -62 71 -100 139 -116 28
-7 29 -6 22 26 -6 32 -48 82 -59 71 -3 -2 -13 9 -22 26 -8 17 -13 31 -9 31 4
0 1 6 -5 14 -7 8 -11 30 -9 50 2 28 -4 43 -24 62 -26 26 -26 26 -37 6z"/>
<path d="M31239 22330 c-222 -28 -416 -165 -514 -362 -99 -201 -100 -394 -3
-598 53 -110 175 -236 285 -293 182 -94 396 -102 579 -22 69 30 154 86 154
100 0 12 76 85 89 85 8 0 81 107 81 119 0 3 9 23 19 43 54 100 71 298 38 428
-85 324 -400 541 -728 500z"/>
<path d="M34024 22329 c-142 -18 -278 -85 -383 -190 -79 -78 -132 -165 -168
-274 -23 -70 -26 -95 -25 -201 3 -202 55 -329 196 -470 129 -129 284 -194 467
-194 171 0 330 63 456 183 92 88 133 150 133 204 0 32 4 42 19 46 37 9 71 187
37 187 -9 0 -16 -13 -19 -32 -3 -28 -4 -27 -5 10 -1 24 2 41 7 38 5 -4 17 -3
26 0 34 14 0 215 -55 323 -130 259 -402 405 -686 370z"/>
<path d="M36859 22329 c-91 -12 -201 -53 -279 -104 -351 -230 -407 -725 -115
-1021 79 -80 177 -142 280 -176 59 -19 90 -23 200 -23 116 1 139 4 210 29 201
69 363 230 420 415 l7 24 -34 -27 c-40 -30 -60 -33 -78 -11 -18 21 -6 29 19
13 18 -11 24 -9 49 15 15 15 33 27 39 27 17 0 33 90 33 180 0 298 -203 563
-490 639 -95 25 -177 31 -261 20z"/>
<path d="M39734 22329 c-79 -10 -190 -48 -262 -91 -129 -76 -251 -235 -296
-388 -45 -150 -28 -325 46 -480 53 -110 175 -236 285 -293 197 -102 431 -102
624 -1 129 68 281 237 296 328 3 20 9 36 14 36 9 0 30 69 34 118 2 18 -1 30
-6 27 -16 -11 -10 32 7 46 14 11 15 26 10 88 -17 187 -119 372 -266 483 -130
98 -321 148 -486 127z"/>
<path d="M42605 22329 c-244 -35 -455 -206 -538 -436 -138 -382 92 -796 486
-877 301 -63 605 82 737 350 36 74 73 210 68 255 l-3 32 -27 -28 c-16 -15 -28
-23 -28 -18 0 5 14 22 30 38 35 34 39 72 15 175 -43 183 -180 357 -345 438
-132 65 -267 89 -395 71z"/>
<path d="M34024 19830 c-80 -11 -191 -50 -261 -92 -76 -45 -180 -150 -226
-229 -64 -109 -90 -205 -91 -339 -1 -196 56 -334 198 -475 132 -132 284 -195
467 -195 93 0 99 3 99 57 0 63 100 207 131 188 7 -5 10 -4 6 2 -9 14 56 42
120 52 49 7 104 3 165 -14 24 -6 29 -2 57 47 17 29 43 89 58 133 22 67 26 98
26 195 1 132 -16 206 -68 309 -128 250 -406 398 -681 361z"/>
<path d="M36855 19829 c-144 -21 -293 -97 -392 -200 -195 -204 -243 -512 -117
-759 12 -25 31 -50 42 -57 10 -6 22 -26 25 -43 6 -30 27 -34 27 -5 0 22 33 28
47 9 20 -28 15 -44 -13 -44 -14 0 -23 -4 -19 -10 3 -5 16 -10 28 -10 18 0 19
-2 7 -10 -12 -9 -8 -16 24 -44 48 -41 134 -93 161 -98 11 -2 23 -7 26 -12 4
-4 17 -3 30 4 20 11 25 10 40 -9 21 -26 29 -27 29 -2 0 15 6 19 28 17 21 -2
28 -9 30 -30 2 -14 10 -26 18 -26 17 0 19 36 2 44 -7 3 -4 4 7 3 14 -2 19 -9
18 -25 -2 -14 3 -22 12 -22 8 0 15 8 15 19 0 21 27 47 38 37 4 -4 -1 -12 -11
-17 -23 -14 -22 -39 3 -39 15 0 20 7 21 28 l1 27 10 -27 c13 -38 28 -35 28 5
l1 32 12 -25 c15 -32 49 -32 74 -1 17 21 22 22 40 11 17 -11 27 -10 63 4 82
33 217 132 193 142 -7 3 -12 20 -12 37 2 31 2 31 6 5 5 -34 22 -36 51 -5 14
15 22 36 22 60 0 40 17 51 22 15 3 -20 7 -16 30 23 77 132 108 334 74 482 -46
193 -178 363 -346 445 -132 65 -269 90 -395 71z"/>
<path d="M39739 19830 c-224 -30 -416 -165 -514 -362 -98 -200 -99 -395 -3
-598 53 -110 175 -236 285 -293 190 -99 403 -103 599 -13 62 29 91 52 179 141
77 78 113 123 134 168 94 197 88 428 -15 613 -132 239 -403 379 -665 344z"/>
<path d="M42605 19829 c-245 -36 -456 -206 -537 -434 -33 -90 -41 -141 -40
-242 2 -208 106 -406 277 -528 34 -25 84 -55 110 -66 48 -21 53 -20 69 16 6
14 27 -17 21 -32 -8 -23 16 -25 34 -2 20 25 38 19 51 -17 7 -18 17 -24 40 -24
26 0 30 4 30 28 0 21 5 28 20 28 24 0 26 -11 5 -20 -22 -8 -18 -36 5 -36 12 0
22 9 26 24 3 14 13 27 21 30 18 7 43 -10 43 -30 0 -8 5 -14 10 -14 6 0 10 11
10 24 0 21 4 24 28 22 15 -2 28 -10 30 -20 4 -18 18 -21 27 -6 3 6 1 10 -5 10
-6 0 -8 5 -5 10 5 8 11 8 20 0 40 -33 268 109 312 193 8 18 22 36 30 40 22 14
83 144 104 225 23 90 24 209 4 306 -39 184 -178 362 -345 444 -132 65 -269 90
-395 71z"/>
<path d="M34421 18728 c-1 -9 -9 -19 -20 -23 -21 -6 -94 -83 -100 -105 -2 -8
-6 -29 -9 -47 l-4 -32 36 11 c24 8 44 23 57 45 11 18 28 33 36 33 9 0 13 3 10
6 -10 10 60 44 91 44 18 0 38 10 56 29 l28 30 -35 6 c-20 4 -59 5 -86 4 -28
-2 -53 1 -55 6 -3 6 -5 2 -5 -7z"/>
<path d="M36859 17329 c-144 -19 -295 -95 -396 -200 -288 -301 -235 -785 112
-1018 83 -55 200 -98 290 -106 33 -3 53 -2 45 1 -29 12 -50 37 -50 58 0 27 28
68 41 61 5 -4 9 -1 9 5 0 6 12 9 28 6 15 -2 30 -5 35 -5 4 -1 7 -5 7 -10 0 -5
-15 -7 -34 -4 -29 4 -37 0 -52 -22 -14 -21 -15 -30 -5 -49 18 -33 50 -23 107
35 56 57 97 69 43 13 -18 -20 -52 -50 -74 -66 l-40 -30 55 6 c154 16 230 40
328 103 179 114 290 312 299 533 9 198 -53 356 -192 495 -149 150 -353 221
-556 194z"/>
<path d="M39739 17330 c-221 -27 -416 -165 -514 -362 -98 -200 -99 -395 -3
-598 33 -70 56 -100 127 -170 137 -137 287 -200 470 -200 111 0 196 21 298 71
293 145 437 485 338 798 -96 303 -401 500 -716 461z"/>
<path d="M42605 17329 c-543 -75 -771 -743 -385 -1129 85 -85 155 -130 262
-167 62 -22 91 -26 193 -27 66 -1 137 3 157 7 35 7 37 10 31 37 -6 32 20 85
37 75 6 -4 10 -1 10 5 0 6 12 9 28 6 15 -2 30 -5 35 -5 4 -1 7 -6 7 -11 0 -7
-13 -8 -34 -5 -29 6 -37 3 -51 -19 -50 -76 47 -73 119 3 28 29 65 44 50 20
-16 -27 43 17 100 75 121 121 185 267 194 442 6 126 -13 218 -71 334 -59 119
-169 231 -287 288 -133 65 -264 89 -395 71z"/>
<path d="M39739 14829 c-219 -25 -416 -164 -514 -361 -98 -200 -99 -397 -3
-598 53 -110 175 -237 285 -293 254 -132 555 -93 763 100 193 179 263 443 185
693 -96 302 -398 496 -716 459z"/>
<path d="M42605 14829 c-141 -19 -292 -97 -392 -200 -288 -301 -235 -786 112
-1017 41 -28 110 -62 157 -78 74 -26 96 -29 213 -29 117 0 138 3 210 28 270
95 439 321 453 605 9 195 -55 359 -193 497 -151 151 -354 221 -560 194z"/>
<path d="M42649 12285 c-7 -30 -16 -52 -21 -49 -4 3 -6 9 -3 13 2 5 -2 17 -10
27 -8 10 -15 27 -15 37 0 31 -20 18 -20 -14 0 -17 4 -28 10 -24 12 8 13 -15 1
-34 -7 -10 -12 -2 -18 29 -10 54 -33 66 -33 17 0 -19 -7 -40 -15 -47 -22 -18
-31 -5 -11 15 18 19 19 24 7 44 -13 21 -31 4 -32 -32 l-1 -32 -11 28 c-14 35
-27 35 -27 -1 0 -23 -4 -28 -25 -27 -14 0 -29 6 -34 13 -10 17 -111 -50 -178
-119 -362 -378 -169 -1008 340 -1113 422 -87 808 225 807 653 0 110 -21 196
-71 298 -62 125 -195 260 -264 267 -15 2 -36 14 -46 27 l-19 24 0 -27 c0 -23
-4 -27 -27 -25 -30 3 -44 34 -22 48 16 9 12 14 -19 24 -21 6 -23 4 -18 -13 8
-24 -1 -49 -21 -56 -17 -7 -43 10 -43 27 0 7 4 7 12 -1 21 -21 38 -13 38 18 0
34 -22 41 -40 13 -9 -16 -10 -15 -8 7 2 16 -2 26 -14 28 -12 2 -18 -5 -21 -30
l-4 -33 -1 33 c-2 23 -7 32 -19 32 -15 0 -17 -8 -15 -50 3 -33 0 -50 -8 -50
-6 0 -10 8 -9 18 4 39 -2 62 -15 62 -10 0 -16 -14 -19 -42 -3 -41 -4 -41 -5 9
-2 41 1 51 12 47 8 -3 17 -1 21 5 4 7 -5 11 -24 11 -28 0 -30 -3 -42 -55z"/>
</g>
</svg>
